<?xml version="1.0" standalone="no"?>
<!DOCTYPE svg PUBLIC "-//W3C//DTD SVG 1.1//EN" "http://www.w3.org/Graphics/SVG/1.1/DTD/svg11.dtd">
<svg xmlns="http://www.w3.org/2000/svg" xmlns:xlink="http://www.w3.org/1999/xlink" version="1.1" id="Layer_1" x="0px" y="0px" viewBox="0 0 148.08 23.18" style="enable-background:new 0 0 148.08 23.18;" xml:space="preserve" width="148.0800018310547" height="23.18000030517578">
<style type="text/css">
	.st0{fill-rule:evenodd;clip-rule:evenodd;fill:#0047BB;}
	.st1{fill:#0047BB;}
	.st2{fill:none;stroke:#000000;stroke-width:0.5441;stroke-miterlimit:22.9256;}
</style>
<path class="st0" d="M16.85,5.3l7.01-0.01c2.03,0,3.68,1.7,3.68,3.78c0,2.08-1.65,3.79-3.68,3.79h-4.39c-2.66,0-5.2,2.21-5.55,4.83  l-4.17-0.01c-2.02,0-3.68-1.7-3.68-3.78c0-2.08,1.65-3.79,3.68-3.79h1.92C14.31,10.11,16.49,7.9,16.85,5.3 M22.08,17.95h2.3  c4.97,0,9.01-4.04,9.01-9.01c0-4.97-4.14-8.63-9.11-8.63h-7.66l0,4.96L8.91,5.23C3.94,5.23,0,8.9,0,13.86  c0,4.97,4.04,9.01,9.01,9.01c4.11,0,4.86,0,8.97,0C17.98,20.09,18.49,17.95,22.08,17.95z"/>
<path class="st1" d="M51.34,13.16c-0.01,0.65-0.17,1.19-0.49,1.63c-0.92,1.35-2.84,1.63-4.18,0.66c-0.24-0.18-0.45-0.4-0.63-0.65  c-1.01-1.32-0.78-3.23,0.57-4.21c0.12-0.09,0.23-0.16,0.35-0.23c0.11-0.04,0.22-0.08,0.34-0.12c0.08-0.02,0.14-0.05,0.18-0.09  c0.24-0.06,0.49-0.09,0.78-0.08c0.11,0.01,0.2-0.02,0.27-0.07c0.07-0.05,0.1-0.13,0.11-0.22l-0.07-2.33c0-0.05-0.02-0.1-0.05-0.14  c-0.06-0.08-0.15-0.12-0.27-0.13c-0.57,0.01-1.15,0.1-1.72,0.3c-0.04,0-0.08,0.01-0.12,0.02c-1.05,0.36-2.05,1.03-2.81,2.1  c-0.62,0.87-0.97,1.82-1.07,2.86c-0.1,1.04,0.06,2.04,0.48,2.99c0.42,0.95,1.07,1.74,1.94,2.36c0.64,0.45,1.32,0.77,2.06,0.94  c0.69,0.17,1.39,0.22,2.11,0.13c1.04-0.12,1.99-0.49,2.84-1.13c0.97-0.72,1.65-1.66,2.03-2.81c0.04-0.11,0.05-0.2,0.04-0.27  c0.14-0.49,0.22-1.01,0.22-1.55c0-0.17-0.03-0.27-0.1-0.33c-0.05-0.04-0.13-0.05-0.24-0.05l-2.23-0.05  c-0.11-0.01-0.19,0.03-0.24,0.1C51.36,12.9,51.34,13.01,51.34,13.16"/>
<path class="st1" d="M62.26,14.44c0.03,1.29-1.06,2.46-2.35,2.43c-1.29,0.03-2.33-1.07-2.31-2.43c-0.03-1.4,1.1-2.45,2.31-2.43  C61.2,11.98,62.28,13.15,62.26,14.44 M65.19,9.87c0-0.23-0.11-0.35-0.35-0.35h-1.63c-0.2,0-0.25,0.06-0.34,0.35l-0.31,0.85  c-0.7-0.83-1.64-1.3-2.8-1.3c-0.91,0-1.75,0.23-2.5,0.67c-0.75,0.46-1.34,1.06-1.77,1.83c-0.44,0.78-0.66,1.62-0.66,2.54  c0,0.98,0.23,1.85,0.68,2.61c0.45,0.76,1.05,1.35,1.81,1.78c0.75,0.42,1.56,0.64,2.44,0.64c1.02,0,1.94-0.42,2.66-1.16l0.1,0.28  c0.17,0.44,0.29,0.73,0.57,0.73h1.75c0.23,0,0.35-0.11,0.35-0.35V9.87z"/>
<path class="st1" d="M70.57,12.26h1.29c0.2,0,0.3-0.1,0.3-0.31V9.87c0-0.16-0.11-0.31-0.3-0.31h-1.29V7.32  c0-0.31-0.17-0.48-0.4-0.48c-0.07,0-0.14,0.01-0.19,0.03l-2.01,0.67c-0.3,0.09-0.38,0.22-0.38,0.46v1.57h-1.07  c-0.19,0-0.31,0.11-0.31,0.31v2.07c0,0.21,0.1,0.31,0.31,0.31h1.07v6.73c0,0.23,0.11,0.34,0.34,0.34h2.3c0.23,0,0.34-0.11,0.34-0.34  V12.26z"/>
<path class="st1" d="M80.33,14.44c0.03,1.29-1.06,2.46-2.35,2.43c-1.29,0.03-2.33-1.07-2.31-2.43c-0.03-1.4,1.1-2.45,2.31-2.43  C79.27,11.98,80.36,13.15,80.33,14.44 M83.27,9.87c0-0.23-0.11-0.35-0.35-0.35H81.3c-0.2,0-0.25,0.06-0.34,0.35l-0.3,0.85  c-0.7-0.83-1.64-1.3-2.8-1.3c-0.91,0-1.75,0.23-2.5,0.67c-0.75,0.46-1.34,1.06-1.77,1.83c-0.44,0.78-0.66,1.62-0.66,2.54  c0,0.98,0.23,1.85,0.68,2.61c0.45,0.76,1.05,1.35,1.81,1.78c0.75,0.42,1.56,0.64,2.44,0.64c1.02,0,1.94-0.42,2.66-1.16l0.1,0.28  c0.17,0.44,0.29,0.73,0.57,0.73h1.75c0.23,0,0.35-0.11,0.35-0.35V9.87z"/>
<path class="st1" d="M85.08,18.96c0,0.24,0.13,0.36,0.38,0.36h2.17c0.23,0,0.37-0.15,0.37-0.36V7.03c0-0.22-0.15-0.36-0.37-0.36  h-2.17c-0.22,0-0.38,0.13-0.38,0.36V18.96z"/>
<path class="st1" d="M99.52,10.04c0.03-0.07,0.05-0.15,0.05-0.23c0-0.19-0.12-0.29-0.35-0.29h-2.3c-0.23,0-0.38,0.11-0.46,0.34  l-2.15,6.26l-2.19-6.23c-0.1-0.24-0.25-0.36-0.46-0.36h-2.15c-0.22,0-0.39,0.12-0.39,0.35c0,0.07,0.02,0.16,0.06,0.25l3.69,9.18  l-1.25,3.21c-0.04,0.1-0.06,0.2-0.06,0.3c0,0.26,0.21,0.38,0.53,0.38h1.91c0.23,0,0.38-0.1,0.47-0.32L99.52,10.04z"/>
<path class="st1" d="M100.57,17.89c0.95,1.2,2.21,1.64,3.67,1.64c1.93,0.02,3.79-1.23,3.74-3.16c0-0.7-0.17-1.32-0.52-1.87  c-0.35-0.54-0.99-0.96-1.93-1.27c-0.2-0.07-0.49-0.16-0.86-0.26c-0.95-0.29-1.09-0.33-1.14-0.72c0-0.26,0.32-0.47,0.9-0.47  c0.21,0,0.39,0.02,0.55,0.08c0.32,0.11,0.47,0.24,0.82,0.53c0.1,0.09,0.18,0.13,0.26,0.13c0.07,0,0.15-0.04,0.25-0.12l1.18-1.02  c0.12-0.1,0.18-0.21,0.18-0.3c0-0.09-0.05-0.18-0.17-0.29c-0.32-0.29-0.59-0.54-0.82-0.71c-0.46-0.35-1.26-0.68-2.31-0.68  c-2.31,0-3.67,1.15-3.67,2.74c0,1.74,0.86,2.72,2.84,3.3c1.32,0.39,1.47,0.48,1.51,0.95c0,0.43-0.28,0.68-1.04,0.68  c-0.58,0-1.22-0.29-1.88-0.87c-0.11-0.1-0.21-0.14-0.3-0.14c-0.07,0-0.14,0.03-0.21,0.1l-1.08,1.06c-0.1,0.11-0.16,0.22-0.16,0.33  C100.39,17.63,100.45,17.75,100.57,17.89"/>
<path class="st1" d="M113.2,12.26h1.29c0.2,0,0.3-0.1,0.3-0.31V9.87c0-0.16-0.11-0.31-0.3-0.31h-1.29V7.32  c0-0.31-0.17-0.48-0.4-0.48c-0.07,0-0.14,0.01-0.19,0.03l-2.01,0.67c-0.3,0.09-0.38,0.22-0.38,0.46v1.57h-1.07  c-0.19,0-0.31,0.11-0.31,0.31v2.07c0,0.21,0.1,0.31,0.31,0.31h1.07v6.73c0,0.23,0.11,0.34,0.34,0.34h2.3c0.23,0,0.34-0.11,0.34-0.34  V12.26z"/>
<path class="st1" d="M118.97,10.35h1.65c0.71,0,1.18,0.66,1.18,1.28c0,0.67-0.45,1.29-1.18,1.29h-1.65V10.35z M116.01,18.99  c0,0.22,0.11,0.34,0.33,0.34h2.28c0.23,0,0.35-0.11,0.35-0.34v-3.65h2.35c2.01,0.04,3.52-1.85,3.49-3.69  c0.03-1.87-1.53-3.79-3.55-3.74h-4.93c-0.19,0-0.33,0.13-0.33,0.35V18.99z"/>
<path class="st1" d="M133.28,14.44c0.03,1.29-1.06,2.46-2.35,2.43c-1.29,0.03-2.33-1.07-2.31-2.43c-0.03-1.4,1.1-2.45,2.31-2.43  C132.22,11.98,133.3,13.15,133.28,14.44 M136.21,9.87c0-0.23-0.11-0.35-0.35-0.35h-1.63c-0.2,0-0.25,0.06-0.34,0.35l-0.3,0.85  c-0.7-0.83-1.64-1.3-2.8-1.3c-0.91,0-1.75,0.23-2.5,0.67c-0.75,0.46-1.34,1.06-1.77,1.83c-0.44,0.78-0.66,1.62-0.66,2.54  c0,0.98,0.23,1.85,0.68,2.61c0.45,0.76,1.05,1.35,1.81,1.78c0.75,0.42,1.56,0.64,2.44,0.64c1.02,0,1.94-0.42,2.66-1.16l0.1,0.28  c0.17,0.44,0.29,0.73,0.57,0.73h1.75c0.23,0,0.35-0.11,0.35-0.35V9.87z"/>
<path class="st1" d="M147.7,10.04c0.03-0.07,0.05-0.15,0.05-0.23c0-0.19-0.12-0.29-0.35-0.29h-2.3c-0.23,0-0.38,0.11-0.46,0.34  l-2.15,6.26l-2.19-6.23c-0.1-0.24-0.25-0.36-0.46-0.36h-2.15c-0.22,0-0.39,0.12-0.39,0.35c0,0.07,0.02,0.16,0.06,0.25l3.69,9.18  l-1.25,3.21c-0.04,0.1-0.06,0.2-0.06,0.3c0,0.26,0.21,0.38,0.53,0.38h1.91c0.23,0,0.38-0.1,0.47-0.32L147.7,10.04z"/>
<path class="st2" d="M148.08,0"/>
</svg>